<svg xmlns="http://www.w3.org/2000/svg" viewBox="0 0 64 64" role="img" aria-labelledby="title desc">
  <title id="title">CenterLine Selector icon</title>
  <desc id="desc">A selection box with a centered red marker.</desc>
  <defs>
    <linearGradient id="bg" x1="10" x2="54" y1="8" y2="56" gradientUnits="userSpaceOnUse">
      <stop offset="0" stop-color="#fff3de" />
      <stop offset="1" stop-color="#f2c28d" />
    </linearGradient>
    <linearGradient id="surface" x1="16" x2="48" y1="14" y2="50" gradientUnits="userSpaceOnUse">
      <stop offset="0" stop-color="#fffdf7" stop-opacity="0.96" />
      <stop offset="1" stop-color="#ffe9cb" stop-opacity="0.92" />
    </linearGradient>
  </defs>
  <rect width="64" height="64" rx="18" fill="url(#bg)" />
  <path d="M12 18c0-7.2 5.8-13 13-13h27c6.6 0 12 5.4 12 12v30c0 7-5.7 12.7-12.7 12.7H18.5C10.5 59.7 4 53.2 4 45.2V18.8C4 11.7 9.7 6 16.8 6h8.6" fill="none" stroke="#c16d2b" stroke-opacity="0.22" stroke-width="3" stroke-linecap="round" />
  <rect x="14" y="15" width="36" height="34" rx="8" fill="url(#surface)" stroke="#bf6a2c" stroke-opacity="0.55" stroke-width="2.5" stroke-dasharray="5 4" />
  <path d="M32 21v22M21 32h22" fill="none" stroke="#d62828" stroke-linecap="round" stroke-width="4" />
  <circle cx="32" cy="32" r="5.75" fill="#d62828" stroke="#fff7ed" stroke-width="2.5" />
</svg>